<?xml version="1.0" standalone="no"?>
<!DOCTYPE svg PUBLIC "-//W3C//DTD SVG 20010904//EN"
 "http://www.w3.org/TR/2001/REC-SVG-20010904/DTD/svg10.dtd">
<svg version="1.0" xmlns="http://www.w3.org/2000/svg"
 width="800.000000pt" height="800.000000pt" viewBox="0 0 800.000000 800.000000"
 preserveAspectRatio="xMidYMid meet">

<g transform="translate(0.000000,800.000000) scale(0.100000,-0.100000)"
fill="#000000" stroke="none">
<path d="M4035 6811 c-42 -11 -107 -45 -126 -67 -48 -55 -71 -161 -50 -227 25
-75 78 -118 203 -162 133 -47 167 -79 154 -148 -11 -58 -46 -81 -132 -85 -99
-5 -124 10 -124 73 l0 45 -59 0 -59 0 -4 -92 c-2 -57 0 -96 7 -101 5 -4 42
-17 80 -29 98 -31 231 -31 300 1 98 44 144 113 145 215 0 119 -62 185 -230
246 -104 38 -135 65 -135 120 0 60 37 92 112 98 32 2 70 -1 86 -7 24 -10 27
-15 27 -61 l0 -50 59 0 c69 0 71 3 71 112 0 65 -1 68 -31 83 -68 36 -219 54
-294 36z"/>
<path d="M3340 6745 c-107 -23 -221 -48 -253 -55 l-58 -12 6 -31 c14 -69 14
-69 51 -62 19 3 34 2 34 -3 0 -5 25 -125 55 -268 30 -142 55 -269 55 -281 0
-15 -9 -24 -31 -32 -30 -10 -31 -13 -24 -48 3 -21 10 -42 15 -46 7 -8 538 98
549 109 5 5 -29 178 -38 193 -5 8 -25 10 -63 5 l-56 -6 2 -51 1 -50 -102 -22
c-93 -20 -103 -21 -108 -6 -2 9 -13 58 -23 108 -18 84 -18 93 -3 97 9 3 67 16
129 29 62 14 115 27 118 30 3 3 0 30 -7 61 -11 49 -15 55 -33 51 -125 -29
-247 -52 -250 -46 -9 15 -37 174 -33 185 4 11 145 46 184 46 7 0 17 -18 23
-39 l10 -39 58 17 c31 10 56 20 56 24 -29 155 -38 187 -53 186 -9 -1 -104 -21
-211 -44z"/>
<path d="M4753 6699 c-55 -13 -127 -77 -147 -132 -46 -127 -11 -209 129 -301
132 -88 158 -133 115 -203 -12 -20 -31 -35 -53 -41 -42 -12 -118 1 -161 26
-33 19 -38 46 -22 103 7 24 5 26 -51 36 -32 6 -59 10 -61 8 -1 -1 -14 -41 -28
-89 l-25 -87 23 -19 c113 -94 313 -137 418 -89 56 25 77 44 101 91 71 139 35
234 -131 350 -98 69 -126 108 -115 158 14 62 90 87 176 59 57 -19 64 -32 53
-88 l-10 -49 55 -11 c30 -6 58 -8 62 -4 4 5 17 43 29 86 l21 78 -23 19 c-36
32 -158 87 -216 99 -61 13 -81 13 -139 0z"/>
<path d="M2652 6533 l-123 -65 25 -42 c14 -22 31 -39 38 -37 54 16 49 22 162
-195 120 -228 130 -266 90 -321 -25 -35 -117 -83 -158 -83 -17 0 -45 8 -62 19
-29 18 -42 39 -235 410 -20 38 -17 53 16 71 l24 13 -21 41 c-11 23 -22 42 -23
44 -4 4 -255 -128 -255 -134 0 -3 9 -23 21 -45 15 -31 24 -39 37 -33 46 19 50
14 163 -201 134 -254 174 -301 271 -319 107 -19 308 88 363 194 22 43 30 120
15 164 -6 19 -58 125 -116 235 -57 109 -104 206 -104 214 0 9 11 24 24 34 l23
18 -20 42 c-12 24 -23 43 -26 42 -4 0 -61 -30 -129 -66z"/>
<path d="M5696 6283 l-27 -38 27 -23 27 -23 -159 -237 c-165 -245 -164 -245
-219 -228 -15 5 -25 -2 -43 -30 -13 -20 -20 -40 -15 -44 19 -17 223 -150 230
-150 8 0 53 65 53 76 0 3 -11 15 -25 26 l-24 19 160 240 c135 202 164 240 180
235 10 -3 27 -9 38 -12 13 -4 24 3 40 29 11 19 21 37 21 40 0 7 -202 145 -224
153 -9 3 -25 -10 -40 -33z"/>
<path d="M6073 5968 l-73 -73 39 -45 39 -45 29 28 c16 15 34 27 39 27 5 0 27
-17 47 -38 l37 -38 -198 -197 c-109 -108 -204 -197 -212 -197 -8 0 -27 12 -42
27 l-28 27 -35 -35 -35 -34 118 -118 118 -117 34 35 34 35 -27 28 c-15 15 -27
33 -27 39 0 6 91 99 202 207 l202 196 28 -27 c42 -40 44 -60 12 -94 l-27 -28
44 -39 44 -39 72 66 c40 36 73 68 72 71 0 3 -97 105 -217 228 l-217 223 -72
-73z"/>
<path d="M1831 6003 c-81 -39 -185 -142 -223 -222 -28 -57 -32 -77 -33 -147 0
-73 3 -87 39 -159 51 -103 152 -205 251 -255 61 -30 80 -34 145 -34 59 0 86 5
125 24 100 48 217 184 245 285 l13 47 -81 81 c-45 46 -82 88 -82 95 0 7 6 21
12 32 11 17 9 24 -19 52 l-32 32 -103 -100 c-57 -54 -104 -101 -106 -104 -1
-3 14 -21 33 -40 l35 -34 28 27 c15 15 33 27 39 27 12 0 123 -116 123 -129 0
-4 -14 -28 -30 -53 -39 -59 -98 -99 -155 -106 -113 -12 -310 151 -346 288 -15
59 -6 106 32 163 28 42 101 107 121 107 5 0 28 -18 52 -41 l44 -40 41 43 40
43 -72 73 c-39 39 -74 72 -77 72 -3 -1 -29 -12 -59 -27z"/>
<path d="M3816 5690 c-116 -15 -275 -50 -365 -82 -439 -153 -790 -466 -986
-881 -266 -563 -206 -1212 161 -1728 79 -111 267 -298 384 -381 218 -155 500
-267 758 -303 l52 -7 0 225 c0 168 -3 227 -12 234 -7 6 -31 13 -52 16 -23 4
-51 17 -65 32 l-26 25 -5 227 -5 226 -60 19 c-93 30 -275 121 -321 161 -51 45
-82 109 -90 185 -10 96 49 635 102 922 30 166 102 466 120 501 7 15 30 37 51
49 61 36 193 87 268 103 97 22 333 55 447 63 88 6 99 5 149 -18 81 -38 212
-140 325 -252 122 -123 155 -181 162 -292 5 -77 0 -85 -34 -59 -26 19 -47 19
-74 -3 -36 -29 -21 -64 49 -112 68 -45 78 -57 62 -73 -8 -8 -21 -5 -50 11 -47
27 -63 27 -84 4 -37 -40 -12 -79 89 -138 24 -14 44 -32 44 -40 0 -20 -11 -18
-61 11 -38 21 -48 22 -69 12 -17 -9 -26 -22 -28 -44 -3 -29 2 -35 72 -83 70
-46 89 -71 68 -84 -4 -3 -29 9 -55 26 -52 34 -88 33 -107 -2 -18 -34 -2 -58
76 -110 41 -28 74 -57 74 -65 0 -21 -13 -19 -70 13 l-49 27 -27 -27 c-24 -24
-26 -30 -16 -52 6 -14 41 -45 76 -68 36 -24 66 -48 66 -55 0 -24 -22 -24 -60
1 -47 31 -71 33 -93 8 -30 -32 -21 -60 29 -95 97 -67 91 -56 71 -134 -39 -151
-117 -266 -202 -298 -24 -10 -67 -20 -96 -23 l-54 -7 -5 -165 c-5 -176 -15
-211 -62 -226 -16 -5 -19 -12 -14 -36 7 -33 15 -47 153 -252 51 -76 98 -153
105 -172 14 -40 10 -40 146 18 107 46 217 111 332 193 334 241 567 608 657
1034 24 111 27 149 27 321 0 146 -4 220 -18 295 -65 357 -223 661 -476 915
-252 253 -554 409 -918 475 -103 19 -369 27 -466 15z"/>
<path d="M3940 5210 c-99 -12 -264 -48 -326 -71 -30 -11 -74 -35 -97 -53 -41
-31 -85 -98 -68 -104 4 -1 57 11 117 28 190 53 495 94 714 95 97 0 190 -55
337 -201 110 -109 122 -111 49 -9 -83 116 -218 231 -343 294 -61 30 -66 31
-190 30 -70 -1 -157 -5 -193 -9z"/>
<path d="M4015 4934 c-159 -18 -224 -27 -234 -34 -7 -4 -16 -29 -19 -55 -4
-43 -3 -47 14 -41 68 20 313 42 365 32 19 -3 86 -40 149 -81 112 -73 150 -89
150 -62 0 24 -73 99 -153 158 -103 77 -162 95 -272 83z"/>
<path d="M3432 4878 c-19 -19 -14 -56 8 -68 12 -6 65 -9 127 -8 l108 3 3 43 3
42 -118 0 c-79 0 -123 -4 -131 -12z"/>
<path d="M3885 4750 c-124 -14 -122 -13 -128 -67 -3 -27 -4 -49 -4 -49 1 -1
27 2 58 7 109 17 300 25 334 13 17 -6 84 -45 147 -87 105 -70 148 -90 148 -69
0 38 -165 193 -249 234 -53 26 -171 33 -306 18z"/>
<path d="M3402 4718 c-7 -7 -12 -19 -12 -28 0 -34 22 -40 152 -40 l128 0 0 40
0 40 -128 0 c-86 0 -132 -4 -140 -12z"/>
<path d="M3818 4581 c-31 -3 -60 -9 -63 -13 -4 -4 -10 -27 -12 -51 l-5 -43 73
8 c41 4 131 9 200 10 l126 3 103 -70 c155 -105 154 -105 168 -105 52 0 -72
147 -192 226 l-59 39 -141 1 c-78 1 -167 -1 -198 -5z"/>
<path d="M3382 4558 c-7 -7 -12 -19 -12 -28 0 -34 22 -40 152 -40 l128 0 0 40
0 40 -128 0 c-86 0 -132 -4 -140 -12z"/>
<path d="M3796 4399 c-32 -5 -60 -10 -62 -11 -1 -2 -5 -25 -9 -52 -7 -44 -6
-48 11 -42 27 8 237 26 309 26 64 0 69 -3 287 -156 21 -15 44 -24 53 -20 14 5
14 9 1 34 -23 45 -169 177 -228 206 -48 24 -61 26 -177 25 -70 -1 -153 -5
-185 -10z"/>
<path d="M1457 4259 l-63 -134 -132 -60 c-72 -33 -131 -62 -131 -65 0 -3 59
-32 131 -65 l132 -60 63 -134 c35 -73 66 -131 70 -128 3 4 31 61 62 129 l57
123 132 65 c72 35 132 67 132 70 0 3 -60 35 -132 70 l-132 65 -57 123 c-31 68
-59 125 -62 129 -4 3 -35 -55 -70 -128z"/>
<path d="M3362 4378 c-18 -18 -14 -56 7 -68 11 -5 74 -10 140 -10 l121 0 0 45
0 45 -128 0 c-86 0 -132 -4 -140 -12z"/>
<path d="M6413 4259 l-60 -132 -132 -60 c-72 -34 -131 -64 -131 -67 0 -3 59
-33 131 -67 l132 -60 60 -132 c34 -72 63 -131 67 -131 3 0 33 59 66 132 l61
131 132 61 c72 33 131 63 131 66 0 3 -59 33 -132 67 l-132 61 -60 131 c-33 72
-63 131 -66 131 -3 0 -33 -59 -67 -131z"/>
<path d="M3852 4230 c-142 -16 -140 -15 -144 -66 -2 -25 -2 -47 0 -48 1 -2 25
1 53 5 28 5 106 11 173 15 143 8 140 9 290 -102 89 -67 126 -86 126 -67 0 43
-158 206 -239 245 -51 24 -145 31 -259 18z"/>
<path d="M3342 4201 c-8 -5 -12 -21 -10 -37 l3 -29 138 -3 137 -3 0 41 0 40
-127 0 c-71 0 -134 -4 -141 -9z"/>
<path d="M3905 4056 c-5 -3 -49 -7 -96 -11 -47 -4 -90 -10 -96 -13 -6 -4 -14
-28 -18 -54 l-7 -46 38 8 c22 5 103 12 181 16 164 8 150 13 309 -107 51 -38
97 -69 103 -69 21 0 10 38 -24 83 -44 57 -158 155 -204 174 -33 14 -165 27
-186 19z"/>
<path d="M3324 4016 c-3 -8 -4 -25 -2 -38 3 -23 5 -23 139 -26 l137 -3 5 33
c2 18 3 36 0 41 -2 4 -65 7 -139 7 -107 0 -136 -3 -140 -14z"/>
<path d="M3803 3255 c-18 -8 -44 -25 -58 -39 -24 -24 -25 -29 -25 -165 0 -170
12 -210 63 -211 15 0 17 14 17 164 0 136 3 167 16 180 21 22 77 20 105 -3 23
-18 24 -27 29 -159 6 -166 18 -192 89 -192 l34 0 -27 25 c-26 24 -26 26 -26
156 0 173 -19 213 -119 247 -43 15 -58 15 -98 -3z"/>
<path d="M4173 3163 c-12 -2 -38 -22 -57 -44 -32 -34 -36 -45 -36 -92 0 -44 5
-59 31 -89 19 -25 44 -41 70 -48 56 -15 72 -7 27 14 -99 47 -104 192 -8 241
46 24 36 30 -27 18z"/>
<path d="M4167 2673 c-4 -3 -7 -87 -7 -186 l0 -179 48 6 c56 8 206 37 210 41
2 1 -45 75 -103 164 -100 154 -124 179 -148 154z"/>
<path d="M3896 2631 c-14 -16 -16 -39 -14 -172 l3 -154 58 -3 57 -3 0 153 c0
123 -3 158 -16 176 -19 27 -64 29 -88 3z"/>
<path d="M5506 2369 c-14 -11 -26 -30 -26 -41 0 -11 21 -50 47 -87 68 -95 303
-391 311 -391 4 0 20 11 36 24 l30 23 -89 144 c-49 79 -120 190 -158 247 -60
88 -73 102 -97 102 -15 0 -39 -9 -54 -21z"/>
<path d="M2380 2281 c-124 -40 -229 -155 -298 -323 -36 -90 -36 -193 0 -263
14 -27 40 -63 57 -79 17 -17 31 -33 31 -37 0 -4 -11 -21 -25 -37 l-24 -29 38
-18 c46 -20 99 -73 173 -171 52 -70 152 -164 172 -164 6 1 26 20 43 45 l32 43
-44 27 c-31 17 -61 49 -94 99 -27 40 -63 85 -80 99 -17 14 -31 28 -31 30 0 2
19 1 42 -3 55 -10 135 3 189 31 94 47 200 190 241 322 68 225 -78 425 -317
434 -44 1 -91 -1 -105 -6z m163 -122 c50 -14 112 -74 125 -123 25 -91 -47
-266 -148 -359 -63 -59 -102 -74 -165 -64 -49 8 -114 55 -137 101 -65 128 74
399 230 446 38 11 52 11 95 -1z"/>
<path d="M5266 2174 c-66 -29 -121 -56 -124 -59 -3 -3 3 -23 13 -46 17 -38 21
-40 50 -35 l32 6 -50 -180 c-28 -99 -52 -178 -55 -176 -2 2 -28 59 -57 127
-56 128 -58 150 -15 164 19 6 19 8 4 43 -8 20 -19 41 -23 45 -7 7 -234 -85
-253 -102 -5 -4 0 -26 9 -50 15 -38 19 -42 42 -36 14 4 30 7 35 8 8 2 65 -120
191 -412 l50 -113 -29 -23 c-28 -22 -29 -25 -16 -57 7 -18 17 -37 21 -41 7 -9
234 85 253 103 10 10 -21 90 -35 90 -4 0 -19 -4 -33 -10 -24 -9 -27 -6 -47 38
-21 46 -21 48 -4 117 10 39 20 75 24 82 4 8 40 -13 109 -63 56 -42 102 -79
102 -84 0 -4 -11 -15 -24 -24 -24 -15 -24 -16 -9 -56 9 -22 22 -40 29 -40 9 0
255 105 272 116 2 1 -7 22 -19 47 -20 42 -24 45 -47 36 -14 -6 -31 -8 -38 -5
-6 2 -84 55 -172 116 l-159 111 39 142 c32 116 44 147 67 167 l28 25 -18 43
c-10 23 -19 42 -21 41 -2 0 -57 -25 -122 -55z"/>
<path d="M2966 2004 c-4 -19 -9 -41 -12 -49 -3 -8 7 -17 25 -23 17 -6 31 -16
31 -22 0 -6 -27 -116 -60 -245 -33 -129 -60 -247 -60 -262 0 -60 22 -108 70
-154 63 -62 138 -90 255 -96 84 -4 94 -3 145 24 86 44 101 74 171 343 33 129
66 238 72 242 7 5 24 5 39 2 24 -5 28 -2 37 33 6 21 11 43 11 49 0 13 -257 80
-268 70 -3 -4 -12 -25 -18 -47 -12 -38 -11 -41 13 -50 13 -5 29 -9 34 -9 6 0
8 -8 5 -17 -3 -10 -30 -115 -61 -233 -30 -118 -62 -225 -71 -238 -23 -34 -80
-55 -131 -48 -62 8 -120 41 -139 78 -22 42 -16 79 48 323 l53 200 38 0 c34 0
38 3 47 35 15 54 13 58 -32 70 -24 6 -84 22 -134 36 -51 13 -94 24 -97 24 -3
0 -8 -16 -11 -36z"/>
<path d="M4408 1901 c-70 -23 -112 -49 -160 -98 -59 -61 -81 -122 -86 -238 -9
-224 81 -400 231 -452 66 -23 188 -22 277 1 76 21 163 65 157 81 -3 6 -10 52
-17 104 l-13 93 -45 -6 c-25 -3 -52 -6 -62 -6 -15 0 -16 -6 -9 -47 12 -71 11
-72 -22 -92 -66 -40 -185 -35 -243 10 -63 50 -106 172 -107 305 -1 152 54 222
187 244 83 14 101 3 109 -64 8 -62 10 -63 81 -45 35 9 44 16 43 33 -1 39 -25
176 -33 183 -4 4 -58 9 -119 10 -88 2 -124 -1 -169 -16z"/>
<path d="M3740 1820 c0 -49 1 -50 29 -50 17 0 32 -3 35 -8 2 -4 -2 -133 -9
-286 -11 -250 -14 -281 -31 -293 -10 -7 -25 -13 -35 -13 -12 0 -18 -12 -22
-42 -3 -24 -3 -45 -1 -48 6 -5 276 -19 282 -14 2 1 4 24 5 51 2 48 2 48 -32
51 l-34 3 7 102 c3 56 9 181 12 277 4 96 11 183 16 193 5 10 20 17 38 17 29 0
30 1 30 49 l0 48 -82 6 c-46 4 -111 7 -145 7 l-63 0 0 -50z"/>
<path d="M5906 1799 c-20 -16 -26 -29 -26 -59 0 -30 6 -43 26 -59 37 -29 70
-26 105 8 34 35 37 68 8 105 -26 33 -75 35 -113 5z"/>
</g>
</svg>
